<svg xmlns="http://www.w3.org/2000/svg" viewBox="0 0 260.46 217.03"><defs><style>.cls-1{fill:#0080ff;}.cls-2{fill:#0063a3;}.cls-3{fill:#fff;}.cls-4{fill:#ffd90a;}.cls-5{fill:#ff2654;}.cls-6{fill:#e50a54;}.cls-7{fill:#f7d617;}.cls-8{fill:#0a5ca6;}.cls-9{fill:#f7d914;}</style></defs><g id="Layer_2" data-name="Layer 2"><g id="Layer_1-2" data-name="Layer 1"><rect class="cls-1" x="56.13" y="99.54" width="61.38" height="61.38" transform="translate(-66.66 99.54) rotate(-45)"/><rect class="cls-2" x="56.09" y="12.71" width="61.38" height="61.38" transform="translate(-5.27 74.07) rotate(-45)"/><polygon class="cls-3" points="69.97 51.02 69.97 61.41 76.75 56.22 69.97 51.02"/><polygon class="cls-3" points="83.35 61.41 83.35 51.02 76.57 56.22 83.35 61.41"/><polygon class="cls-4" points="83.35 51.02 89.87 56.25 83.35 61.41 83.35 51.02"/><polygon class="cls-3" points="93.13 50.4 88.82 50.4 90.98 52.49 93.13 50.4"/><polygon class="cls-5" points="88.84 50.41 93.15 50.41 90.99 48.33 88.84 50.41"/><polygon class="cls-3" points="96.54 45.98 92.22 45.98 94.38 48.06 96.54 45.98"/><polygon class="cls-4" points="92.24 45.99 96.55 45.99 94.39 43.9 92.24 45.99"/><polygon class="cls-3" points="103.49 29.55 103.49 39.94 96.71 34.75 103.49 29.55"/><polygon class="cls-3" points="90.1 39.94 90.1 29.55 96.88 34.75 90.1 39.94"/><polygon class="cls-5" points="90.1 29.55 83.58 34.78 90.1 39.94 90.1 29.55"/><polygon class="cls-3" points="84.79 30.08 80.48 30.08 82.64 32.17 84.79 30.08"/><polygon class="cls-6" points="80.49 30.09 84.81 30.09 82.65 28 80.49 30.09"/><polygon class="cls-5" points="88.19 25.66 83.88 25.66 86.04 27.74 88.19 25.66"/><polygon class="cls-4" points="83.9 25.67 88.21 25.67 86.05 23.58 83.9 25.67"/><rect class="cls-1" x="142.92" y="12.71" width="61.38" height="61.38" transform="translate(20.16 135.47) rotate(-45)"/><path class="cls-3" d="M174.38,58.39h-.25a.7.7,0,0,1-.71-.7V42.24a.71.71,0,0,1,.71-.71h.25a.7.7,0,0,1,.7.71V57.69a.7.7,0,0,1-.7.7"/><polygon class="cls-5" points="191.9 42.58 174.32 24.7 174.32 42.42 191.9 42.58"/><polygon class="cls-7" points="156.75 42.58 174.32 24.7 174.32 42.42 156.75 42.58"/><rect class="cls-7" x="186.37" y="56.11" width="61.38" height="61.38" transform="translate(2.2 178.9) rotate(-45)"/><polygon class="cls-8" points="231.72 78.35 230.51 78.35 230.51 68.99 221.3 68.99 221.3 73.89 220.1 73.89 220.1 67.78 231.72 67.78 231.72 78.35"/><polygon class="cls-3" points="228.34 80.52 234.08 80.52 231.21 83.3 228.34 80.52"/><polygon class="cls-5" points="234.06 80.53 228.32 80.53 231.19 77.76 234.06 80.53"/><polygon class="cls-3" points="217.96 75.95 223.7 75.95 220.83 78.73 217.96 75.95"/><polygon class="cls-1" points="223.69 75.96 217.95 75.96 220.82 73.19 223.69 75.96"/><polygon class="cls-8" points="217.12 99.06 215.91 99.06 215.91 85.15 201.96 85.15 201.96 92.56 200.75 92.56 200.75 83.94 217.12 83.94 217.12 99.06"/><polygon class="cls-3" points="212.48 102.22 220.83 102.22 216.66 106.26 212.48 102.22"/><polygon class="cls-5" points="220.81 102.24 212.45 102.24 216.63 98.19 220.81 102.24"/><polygon class="cls-3" points="197.37 95.56 205.73 95.56 201.55 99.6 197.37 95.56"/><polygon class="cls-1" points="205.7 95.58 197.34 95.58 201.52 91.54 205.7 95.58"/><rect class="cls-5" x="142.96" y="99.51" width="61.38" height="61.38" transform="translate(-41.21 160.92) rotate(-45)"/><path class="cls-8" d="M171.52,130.49V118l-9.13,12.49s9.28.16,9.13,0"/><polygon class="cls-3" points="154.8 131.97 192.97 131.97 172.83 145.78 154.8 131.97"/><path class="cls-4" d="M173.36,130.46V112.67l13,17.79s-13.22.23-13,0"/><rect class="cls-2" x="99.53" y="142.94" width="61.38" height="61.38" transform="translate(-84.63 142.94) rotate(-45)"/><polygon class="cls-4" points="126.47 177.54 126.39 177.54 119.61 170.98 112.81 177.57 112.89 177.57 119.66 184.13 126.47 177.54"/><polygon class="cls-5" points="147.94 177.54 147.86 177.54 141.09 170.98 134.28 177.57 134.36 177.57 141.13 184.13 147.94 177.54"/><path class="cls-3" d="M123.37,168.42l6.88,7.23,7.17-7.23Zm6.87,9h0a.7.7,0,0,1-.51-.22l-8.57-9a.72.72,0,0,1,.53-1.22h17.48a.71.71,0,0,1,.67.44.72.72,0,0,1-.15.79l-8.92,9a.73.73,0,0,1-.52.21"/><path class="cls-3" d="M140.4,176.91a.73.73,0,0,1-.72-.65l-1.82-15.39h-3.63a.73.73,0,0,1-.73-.72.73.73,0,0,1,.73-.73h4.28a.73.73,0,0,1,.72.64l1.89,16a.73.73,0,0,1-.64.8h-.08"/><path class="cls-3" d="M119.36,177.63a.74.74,0,0,1-.57-.27.71.71,0,0,1-.13-.63l2.23-8.88-3.12-4.07a.72.72,0,0,1-.08-.76.73.73,0,0,1,.65-.41h4.36a.73.73,0,0,1,.72.73.72.72,0,0,1-.72.72h-2.89l2.45,3.19a.72.72,0,0,1,.12.62l-2.09,8.29,9.94-.2h0a.73.73,0,1,1,0,1.45l-10.88.22h0"/><path class="cls-3" d="M86.69,145.38h-.26a.71.71,0,0,1-.7-.71V129.22a.7.7,0,0,1,.7-.7h.26a.7.7,0,0,1,.7.7v15.45a.71.71,0,0,1-.7.71"/><polygon class="cls-5" points="88.17 125.09 87.63 128.71 69.62 124.14 88.17 125.09"/><polygon class="cls-3" points="88.23 127.67 87.21 124.15 69.96 131.03 88.23 127.67"/><polygon class="cls-8" points="84.72 129.34 85.29 125.72 103.26 130.42 84.72 129.34"/><polygon class="cls-8" points="86.63 128.89 88.23 125.59 70.81 119.14 86.63 128.89"/><polygon class="cls-3" points="86.07 129.2 88.93 126.9 75.92 113.64 86.07 129.2"/><polygon class="cls-4" points="87.83 128.25 87.6 124.59 69.27 127.63 87.83 128.25"/><polygon class="cls-4" points="85.66 128.04 89.12 126.85 81.36 109.97 85.66 128.04"/><polygon class="cls-5" points="89.53 128.56 88.33 125.09 71.45 132.85 89.53 128.56"/><polygon class="cls-8" points="85.63 126.76 88.69 128.77 97.27 112.29 85.63 126.76"/><polygon class="cls-3" points="84.89 125.7 86.41 129.03 102.47 119.71 84.89 125.7"/><polygon class="cls-4" points="86.11 128.04 89.77 128.26 89.05 109.7 86.11 128.04"/><polygon class="cls-4" points="86.59 125.9 87.34 129.49 105.06 123.91 86.59 125.9"/><polygon class="cls-5" points="85.59 129.68 89.18 128.93 83.59 111.21 85.59 129.68"/><polygon class="cls-3" points="88.41 128.01 84.74 128.01 86.57 109.53 88.41 128.01"/><polygon class="cls-5" points="88.92 127.65 85.61 129.21 79.39 111.7 88.92 127.65"/><polygon class="cls-4" points="87.3 128.82 84.12 127 94.88 111.86 87.3 128.82"/><polygon class="cls-4" points="88.22 127.5 85.62 130.09 73.85 115.72 88.22 127.5"/><polygon class="cls-5" points="86.98 131.2 84.39 128.61 98.76 116.83 86.98 131.2"/><rect class="cls-7" x="99.49" y="56.12" width="61.38" height="61.38" transform="translate(-23.25 117.47) rotate(-45)"/><polygon class="cls-2" points="141.13 78.16 133.57 70.84 126.06 78.12 125.97 78.12 133.53 85.43 141.04 78.16 141.13 78.16"/><path class="cls-3" d="M133.43,68.56a.87.87,0,0,1-.87-.86V61.93a.87.87,0,0,1,1.73,0V67.7a.87.87,0,0,1-.86.86"/><path class="cls-3" d="M133.81,95.1a.87.87,0,0,1-.86-.86V88.47a.87.87,0,0,1,1.73,0v5.77a.87.87,0,0,1-.87.86"/><path class="cls-3" d="M151.34,79.11h-5.77a.87.87,0,0,1,0-1.73h5.77a.87.87,0,0,1,0,1.73"/><path class="cls-3" d="M123.05,79.26h-5.77a.86.86,0,0,1,0-1.72h5.77a.86.86,0,0,1,0,1.72"/><path class="cls-3" d="M140.32,71.58a.85.85,0,0,1-.61-.25.88.88,0,0,1,0-1.22L143.79,66A.88.88,0,0,1,145,66a.86.86,0,0,1,0,1.22l-4.08,4.08a.84.84,0,0,1-.61.25"/><path class="cls-3" d="M121.83,90.63a.87.87,0,0,1-.61-.26.85.85,0,0,1,0-1.21l4.08-4.08a.86.86,0,0,1,1.22,1.22l-4.08,4.07a.87.87,0,0,1-.61.26"/><path class="cls-3" d="M126.34,72a.85.85,0,0,1-.61-.25l-4.08-4.08a.86.86,0,0,1,0-1.22.88.88,0,0,1,1.22,0L127,70.51a.86.86,0,0,1-.61,1.47"/><path class="cls-3" d="M145.38,90.48a.9.9,0,0,1-.61-.25l-4.08-4.08a.88.88,0,0,1,0-1.22.86.86,0,0,1,1.22,0L146,89a.86.86,0,0,1,0,1.22.9.9,0,0,1-.61.25"/><polygon class="cls-3" points="121.8 101.11 111.41 101.11 116.61 96.2 121.8 101.11"/><polygon class="cls-3" points="131.52 101.11 121.12 101.11 126.32 96.2 131.52 101.11"/><rect class="cls-5" x="12.71" y="56.12" width="61.38" height="61.38" transform="translate(-48.67 56.11) rotate(-45)"/><path class="cls-3" d="M42.82,108.49a.6.6,0,0,1-.61-.6V68.78a.61.61,0,1,1,1.21,0v39.11a.6.6,0,0,1-.6.6"/><polygon class="cls-3" points="45.34 68.78 40.29 68.78 42.82 63.48 45.34 68.78"/><path class="cls-3" d="M33.38,80.21a.47.47,0,0,1-.47-.4.48.48,0,0,1,.4-.53l17.2-2.41a.47.47,0,0,1,.53.4.46.46,0,0,1-.4.53l-17.2,2.41h-.06"/><polygon class="cls-9" points="50.06 75.07 50.06 79.8 55.57 77.43 50.06 75.07"/><polygon class="cls-3" points="33.74 82.28 33.74 77.56 28.22 79.92 33.74 82.28"/><polygon class="cls-8" points="39.52 70.36 39.52 75.08 45.04 72.72 39.52 70.36"/><path class="cls-3" d="M34.31,83.54a.47.47,0,0,1-.47-.44.49.49,0,0,1,.45-.5l17.3-.91a.46.46,0,0,1,.49.44.47.47,0,0,1-.44.49l-17.3.92h0"/><path class="cls-3" d="M48.17,76.6h0l-12.38-.51a.47.47,0,1,1,0-.94l12.38.52a.47.47,0,0,1,0,.93"/><polygon class="cls-1" points="47.72 78.38 47.72 73.65 53.23 76.01 47.72 78.38"/><polygon class="cls-9" points="35.87 73.58 35.87 78.31 30.36 75.94 35.87 73.58"/><polygon class="cls-3" points="51.16 84.58 51.16 79.85 56.67 82.21 51.16 84.58"/><path class="cls-3" d="M37.06,87.15a.46.46,0,0,1-.46-.45.47.47,0,0,1,.44-.48l12.39-.52a.47.47,0,1,1,0,.94l-12.39.51h0"/><polygon class="cls-9" points="49.02 83.78 49.02 88.5 54.53 86.14 49.02 83.78"/><polygon class="cls-8" points="37.52 88.93 37.52 84.2 32.01 86.56 37.52 88.93"/><polygon class="cls-9" points="35.01 81.31 35.01 86.04 29.5 83.68 35.01 81.31"/><path class="cls-3" d="M47,90.26h0l-8.34-.35a.47.47,0,0,1,0-.94l8.34.35a.47.47,0,0,1,0,.94"/><polygon class="cls-9" points="38.95 87.83 38.95 91.01 35.24 89.42 38.95 87.83"/><polygon class="cls-8" points="46.7 91.3 46.7 88.12 50.41 89.71 46.7 91.3"/><polygon class="cls-9" points="40.56 82.99 40.56 78.27 35.05 80.63 40.56 82.99"/><polygon class="cls-1" points="44.22 79.3 44.22 84.03 49.73 81.67 44.22 79.3"/><polygon class="cls-9" points="40.95 87.82 40.95 84.59 37.19 86.21 40.95 87.82"/><polygon class="cls-1" points="43.31 84.58 43.31 88.15 47.48 86.36 43.31 84.58"/><path class="cls-3" d="M45.46,93.19h0l-6.23-.07a.48.48,0,0,1-.46-.48.47.47,0,0,1,.47-.46h0l6.23.07a.47.47,0,1,1,0,.94"/><polygon class="cls-1" points="41.02 90.94 41.02 94.12 37.31 92.53 41.02 90.94"/><polygon class="cls-9" points="45.15 94.23 45.15 91.05 48.86 92.64 45.15 94.23"/><polygon class="cls-3" points="40.23 108.52 45.63 108.52 42.88 105.49 40.23 108.52"/></g></g></svg>