<svg xmlns="http://www.w3.org/2000/svg" xmlns:xlink="http://www.w3.org/1999/xlink" viewBox="0 0 124.8 124.8"><defs><style>.cls-1{fill:#fff;}.cls-2{fill:#ff2654;}.cls-3{mask:url(#mask);}</style><mask id="mask" x="-0.1" y="-0.1" width="125" height="125" maskUnits="userSpaceOnUse"><g id="path-1-outside-1_34_23" data-name="path-1-outside-1 34 23"><rect class="cls-1" x="-0.1" y="-0.1" width="125" height="125"/><path d="M62.4,9.9l52.5,51.87L62.4,114.9,9.9,63Z"/><path d="M50.69,76a13.4,13.4,0,0,1-5.11-1,12.75,12.75,0,0,1-4.09-2.73,12.14,12.14,0,0,1-2.66-4,13.33,13.33,0,0,1-.95-5.06,13.06,13.06,0,0,1,.95-5,12,12,0,0,1,2.73-4,12.36,12.36,0,0,1,4.09-2.7,13.73,13.73,0,0,1,5.11-1,13,13,0,0,1,3.71.53,11.59,11.59,0,0,1,3.22,1.49,9.76,9.76,0,0,1,2.38,2.16l-2.87,3a11.8,11.8,0,0,0-2-1.59,9.15,9.15,0,0,0-2.13-1,7.53,7.53,0,0,0-2.31-.36,8,8,0,0,0-5.85,2.41,8.58,8.58,0,0,0-2.34,6,8.56,8.56,0,0,0,5.11,7.86,8.3,8.3,0,0,0,3.25.64,7.31,7.31,0,0,0,2.42-.39,7,7,0,0,0,2-1.06,4.77,4.77,0,0,0,1.33-1.63,4.16,4.16,0,0,0,.49-2v-.77l.63.74H50.52V62.54H61.61c0,.26.08.56.11.89s0,.61,0,.92a7,7,0,0,1,0,.74A11.47,11.47,0,0,1,61,69.55,10.11,10.11,0,0,1,58.57,73,11,11,0,0,1,55,75.26,11.79,11.79,0,0,1,50.69,76Z"/><path d="M77.13,76a11.82,11.82,0,0,1-11.34-7.69,14.75,14.75,0,0,1,0-10.2,11.87,11.87,0,0,1,6.48-6.73,12.88,12.88,0,0,1,9.76,0,11.5,11.5,0,0,1,3.89,2.69,12.31,12.31,0,0,1,2.55,4.07,14.55,14.55,0,0,1,0,10.13,12.25,12.25,0,0,1-2.55,4.08A11.65,11.65,0,0,1,82,75.08,12.27,12.27,0,0,1,77.13,76Zm0-4.4a7.51,7.51,0,0,0,3.05-.6,7,7,0,0,0,2.41-1.77,8.52,8.52,0,0,0,1.58-2.69,9.69,9.69,0,0,0,0-6.66,8.06,8.06,0,0,0-1.58-2.66,6.56,6.56,0,0,0-2.41-1.77,7.21,7.21,0,0,0-3.05-.64,7.33,7.33,0,0,0-3,.64,6.84,6.84,0,0,0-2.42,1.74,8.17,8.17,0,0,0-1.57,2.65,9.8,9.8,0,0,0-.56,3.37,9.91,9.91,0,0,0,.56,3.36,8.11,8.11,0,0,0,1.57,2.66A7.18,7.18,0,0,0,74.09,71,7.64,7.64,0,0,0,77.13,71.64Z"/></g></mask></defs><g id="Layer_2" data-name="Layer 2"><g id="Layer_1-2" data-name="Layer 1"><path class="cls-2" d="M62.4,9.9l52.5,51.87L62.4,114.9,9.9,63Z"/><path class="cls-1" d="M50.69,76a13.4,13.4,0,0,1-5.11-1,12.75,12.75,0,0,1-4.09-2.73,12.14,12.14,0,0,1-2.66-4,13.33,13.33,0,0,1-.95-5.06,13.06,13.06,0,0,1,.95-5,12,12,0,0,1,2.73-4,12.36,12.36,0,0,1,4.09-2.7,13.73,13.73,0,0,1,5.11-1,13,13,0,0,1,3.71.53,11.59,11.59,0,0,1,3.22,1.49,9.76,9.76,0,0,1,2.38,2.16l-2.87,3a11.8,11.8,0,0,0-2-1.59,9.15,9.15,0,0,0-2.13-1,7.53,7.53,0,0,0-2.31-.36,8,8,0,0,0-5.85,2.41,8.58,8.58,0,0,0-2.34,6,8.56,8.56,0,0,0,5.11,7.86,8.3,8.3,0,0,0,3.25.64,7.31,7.31,0,0,0,2.42-.39,7,7,0,0,0,2-1.06,4.77,4.77,0,0,0,1.33-1.63,4.16,4.16,0,0,0,.49-2v-.77l.63.74H50.52V62.54H61.61c0,.26.08.56.11.89s0,.61,0,.92a7,7,0,0,1,0,.74A11.47,11.47,0,0,1,61,69.55,10.11,10.11,0,0,1,58.57,73,11,11,0,0,1,55,75.26,11.79,11.79,0,0,1,50.69,76Z"/><path class="cls-1" d="M77.13,76a11.82,11.82,0,0,1-11.34-7.69,14.75,14.75,0,0,1,0-10.2,11.87,11.87,0,0,1,6.48-6.73,12.88,12.88,0,0,1,9.76,0,11.5,11.5,0,0,1,3.89,2.69,12.31,12.31,0,0,1,2.55,4.07,14.55,14.55,0,0,1,0,10.13,12.25,12.25,0,0,1-2.55,4.08A11.65,11.65,0,0,1,82,75.08,12.27,12.27,0,0,1,77.13,76Zm0-4.4a7.51,7.51,0,0,0,3.05-.6,7,7,0,0,0,2.41-1.77,8.52,8.52,0,0,0,1.58-2.69,9.69,9.69,0,0,0,0-6.66,8.06,8.06,0,0,0-1.58-2.66,6.56,6.56,0,0,0-2.41-1.77,7.21,7.21,0,0,0-3.05-.64,7.33,7.33,0,0,0-3,.64,6.84,6.84,0,0,0-2.42,1.74,8.17,8.17,0,0,0-1.57,2.65,9.8,9.8,0,0,0-.56,3.37,9.91,9.91,0,0,0,.56,3.36,8.11,8.11,0,0,0,1.57,2.66A7.18,7.18,0,0,0,74.09,71,7.64,7.64,0,0,0,77.13,71.64Z"/><g class="cls-3"><path class="cls-1" d="M62.4,9.9l4.92-5L62.34,0,57.42,5Zm52.5,51.87,5,4.92,4.92-5-5-4.92ZM62.4,114.9l-4.92,5,5,4.92,4.92-5ZM9.9,63l-5-4.92L0,63.09,5,68Zm35.68,12-2.73,6.45h0l0,0Zm-4.09-2.73-5,4.92,0,0,0,0Zm-2.66-4-6.49,2.63v0h0Zm0-10.06-6.46-2.7v.05Zm2.73-4,4.87,5,0,0,0,0Zm4.09-2.7L43,45h0Zm8.82-.42-2,6.71h0Zm5.6,3.65,5.1,4.8,4.13-4.39-3.72-4.73Zm-2.87,3-4.89,5,5.1,5,4.89-5.19Zm-2-1.59-3.72,5.93,0,0,0,0Zm-7.7-.71-2.73-6.44h-.05Zm-2.59,1.77-5-4.92,0,0,0,0Zm-1.71,2.66,6.47,2.67h0Zm0,6.62-6.49,2.63,0,.06,0,.06ZM45,69.27l5-4.92h0Zm2.66,1.84L44.79,77.5l.09,0,.09,0Zm5.67.25L51,64.75h0Zm2-1.06,4.27,5.55.07-.06.07-.05Zm1.33-1.63-6.18-3.29-.05.09,0,.1Zm.49-2.76,5.34-4.53L50.13,46.81v19.1Zm.63.74v7h15.1L63.1,62.13Zm-7.24,0h-7v7h7Zm0-4.11v-7h-7v7Zm11.09,0L68.5,61.3l-1-5.76H61.61Zm.11.89-7,.49v0Zm0,.92h-7v.28l0,.29Zm-.8,5.2,6.44,2.73v0ZM58.57,73,53.76,67.9l0,0,0,0ZM55,75.26l2.55,6.52h0l0,0Zm17.24-.18-2.75,6.44h0Zm-3.92-2.66-5.08,4.82,0,.05,0,0Zm-2.56-4.07,6.53-2.54h0Zm2.56-14.24-5-4.87h0Zm3.92-2.69L69.52,45h0Zm9.76,0L84.78,45h0Zm6.44,6.76L82,60.72v0Zm0,10.13L95,70.85h0Zm-2.55,4.08L91,77.2h0ZM82,75.08l-2.74-6.44h0Zm-1.85-4L83,77.45l0,0,0,0Zm2.41-1.77,5.22,4.67,0,0,0,0Zm1.58-2.69L77.65,64l0,.07,0,.06Zm0-6.66L77.6,62.33l0,.07,0,.07Zm-1.58-2.66-5.28,4.59,0,0,0,0Zm-2.41-1.77-3,6.34.09.05.1,0Zm-6.09,0,2.76,6.43.07,0,.07,0Zm-2.42,1.74-5.21-4.67h0ZM70.1,59.88l6.57,2.42h0Zm0,6.73L63.51,69v0Zm1.57,2.66-5.21,4.67h0ZM74.09,71l-2.9,6.37.06,0,.07,0ZM57.48,14.88,110,66.75l9.84-10L67.32,4.92Zm52.44,42L57.42,110l10,9.84,52.5-53.13Zm-42.6,53.07L14.82,58.05,5,68l52.5,51.87ZM14.88,68l52.5-53.13L57.42,5,4.92,58.11ZM50.69,69a6.49,6.49,0,0,1-2.46-.44l-5.29,13A20.38,20.38,0,0,0,50.69,83Zm-2.38-.41a5.72,5.72,0,0,1-1.89-1.25l-9.86,9.94a19.91,19.91,0,0,0,6.29,4.21Zm-1.84-1.2a5.36,5.36,0,0,1-1.17-1.77L32.35,71a19.37,19.37,0,0,0,4.16,6.3Zm-1.15-1.74a6.34,6.34,0,0,1-.44-2.44h-14a20.29,20.29,0,0,0,1.46,7.69Zm-.44-2.44a6.2,6.2,0,0,1,.42-2.34L32.35,55.6a20.06,20.06,0,0,0-1.47,7.65Zm.4-2.29a5.23,5.23,0,0,1,1.15-1.72l-9.75-10a18.87,18.87,0,0,0-4.31,6.35Zm1.21-1.77A5.31,5.31,0,0,1,48.3,58L43,45a19.32,19.32,0,0,0-6.38,4.21ZM48.26,58a6.68,6.68,0,0,1,2.5-.45v-14A20.64,20.64,0,0,0,43,45Zm2.5-.45a5.75,5.75,0,0,1,1.71.24l4-13.42a20.06,20.06,0,0,0-5.71-.82Zm1.71.24a4.84,4.84,0,0,1,1.34.6l7.76-11.65a19.09,19.09,0,0,0-5.1-2.37Zm1.34.6a3,3,0,0,1,.75.66l11-8.64a17,17,0,0,0-4-3.67ZM55,50l-2.87,3,10.19,9.6,2.87-3Zm7.11,2.83a18.35,18.35,0,0,0-3.29-2.56l-7.26,12a4.48,4.48,0,0,1,.77.62ZM58.9,50.27a16.61,16.61,0,0,0-3.75-1.74L50.93,61.88a2.7,2.7,0,0,1,.52.25Zm-3.75-1.74a14.77,14.77,0,0,0-4.42-.68v14a1.06,1.06,0,0,1,.2,0Zm-4.42-.68a15.22,15.22,0,0,0-6,1.2L50.2,61.94a1.17,1.17,0,0,1,.53-.09Zm-6,1.22a15.28,15.28,0,0,0-4.79,3.27l10,9.84a1.28,1.28,0,0,1,.4-.27Zm-4.87,3.35a15.6,15.6,0,0,0-3.12,4.82l12.94,5.35a1.54,1.54,0,0,1,.3-.49ZM36.7,57.24a15.56,15.56,0,0,0-1.16,6h14a1.63,1.63,0,0,1,.1-.66Zm-1.16,6a15.67,15.67,0,0,0,1.14,5.92l13-5.25a1.58,1.58,0,0,1-.12-.67Zm1.19,6A15.67,15.67,0,0,0,40,74.19l10-9.84a1.46,1.46,0,0,1-.36-.55ZM40,74.19a15.64,15.64,0,0,0,4.78,3.31L50.5,64.72a1.54,1.54,0,0,1-.53-.37Zm5,3.39a15.37,15.37,0,0,0,5.93,1.17v-14a1.55,1.55,0,0,1-.58-.1Zm5.93,1.17A14.29,14.29,0,0,0,55.62,78L51,64.75H50.9ZM55.62,78a14.05,14.05,0,0,0,4-2.12L51,64.75l0,0h0l-.06,0Zm4.1-2.23a11.94,11.94,0,0,0,3.2-4l-12.55-6.2a2,2,0,0,1,.54-.71ZM62.82,72a11.13,11.13,0,0,0,1.31-5.28h-14a2.88,2.88,0,0,1,.33-1.3Zm1.31-5.28v-.77h-14v.77ZM51.79,70.43l.63.74,10.68-9-.63-.75Zm6-10.78H50.52v14h7.24Zm-.24,7V62.54h-14v4.11Zm-7,2.89H61.61v-14H50.52Zm4.2-5.76h0s0,.07,0,.14l14-1c0-.52-.1-1.07-.2-1.63Zm0,.18c0,.13,0,.26,0,.39h14c0-.49,0-1,0-1.45Zm0,1a.58.58,0,0,0,0,.15v0h14c0-.45,0-.9-.06-1.32Zm0,.17a4.47,4.47,0,0,1-.31,1.78l12.93,5.37a18.57,18.57,0,0,0,1.38-7.15Zm-.29,1.73a3,3,0,0,1-.74,1.08l9.61,10.18a17,17,0,0,0,4-5.8ZM53.71,68a3.76,3.76,0,0,1-1.29.81l5.22,13A17.94,17.94,0,0,0,63.43,78Zm-1.23.79a4.87,4.87,0,0,1-1.79.3V83a19,19,0,0,0,6.89-1.26Zm24.65.3a5.21,5.21,0,0,1-2.11-.4l-5.5,12.88A19.36,19.36,0,0,0,77.13,83ZM75,68.64a5.09,5.09,0,0,1-1.69-1.14l-10,9.84a19.12,19.12,0,0,0,6.15,4.18Zm-1.59-1a5.36,5.36,0,0,1-1.11-1.8l-13,5.08a19.46,19.46,0,0,0,4,6.35Zm-1.11-1.8a7,7,0,0,1-.44-2.56h-14a21,21,0,0,0,1.39,7.64Zm-.44-2.56a7,7,0,0,1,.44-2.56l-13-5.08a21,21,0,0,0-1.39,7.64Zm.44-2.56A4.91,4.91,0,0,1,73.38,59L63.32,49.24a19.09,19.09,0,0,0-4,6.37ZM73.38,59A4.74,4.74,0,0,1,75,57.86L69.52,45a18.92,18.92,0,0,0-6.2,4.26ZM75,57.86a5.21,5.21,0,0,1,2.11-.4v-14A19.19,19.19,0,0,0,69.52,45Zm2.11-.4a5.3,5.3,0,0,1,2.16.4L84.78,45a19.38,19.38,0,0,0-7.65-1.52Zm2.16.4a4.43,4.43,0,0,1,1.55,1.07L91,49.29A18.64,18.64,0,0,0,84.78,45Zm1.55,1.07A5.31,5.31,0,0,1,82,60.72l13-5.08a19.46,19.46,0,0,0-4-6.35ZM82,60.76a6.62,6.62,0,0,1,.42,2.49h14A20.57,20.57,0,0,0,95,55.61Zm.42,2.49A6.84,6.84,0,0,1,82,65.78l13,5.07a20.75,20.75,0,0,0,1.38-7.6ZM82,65.78a5.31,5.31,0,0,1-1.11,1.79L91,77.2a19.35,19.35,0,0,0,4-6.35Zm-1.11,1.79a4.56,4.56,0,0,1-1.55,1.07l5.49,12.88A18.53,18.53,0,0,0,91,77.2Zm-1.55,1.07a5.3,5.3,0,0,1-2.16.4V83a19.38,19.38,0,0,0,7.65-1.52Zm-2.16,10A14.44,14.44,0,0,0,83,77.45L77.35,64.64h-.22Zm6-1.23a14.31,14.31,0,0,0,4.73-3.47L77.38,64.6l0,0-.06,0Zm4.8-3.55A15.47,15.47,0,0,0,90.74,69L77.6,64.16a1.8,1.8,0,0,1-.29.52Zm2.81-4.73a16.22,16.22,0,0,0,1.07-5.88h-14a2.11,2.11,0,0,1-.11.78Zm1.07-5.88a16.18,16.18,0,0,0-1.07-5.88l-13,5.1a2.07,2.07,0,0,1,.11.78Zm-1-5.75a15.3,15.3,0,0,0-2.93-4.91L77.38,61.93a1.24,1.24,0,0,1,.22.4Zm-2.86-4.83a13.74,13.74,0,0,0-4.94-3.61L77.41,61.92h0l0,0,0,0Zm-4.74-3.52a14,14,0,0,0-6-1.3v14h.15l-.06,0Zm-6-1.3a14.21,14.21,0,0,0-5.94,1.27L77,61.86h.14Zm-5.81,1.21a13.81,13.81,0,0,0-4.86,3.5L76.89,61.9h0Zm-4.86,3.5a15.12,15.12,0,0,0-2.93,4.91L76.67,62.3a1.13,1.13,0,0,1,.22-.4Zm-2.93,4.91a16.74,16.74,0,0,0-1,5.78h14a2.85,2.85,0,0,1,.13-1Zm-1,5.78a16.83,16.83,0,0,0,1,5.73l13.18-4.73a2.87,2.87,0,0,1-.15-1Zm1,5.78a15.12,15.12,0,0,0,2.93,4.91L76.89,64.6a1.13,1.13,0,0,1-.22-.4Zm2.93,4.91a14.21,14.21,0,0,0,4.73,3.47L77,64.67l-.07,0s0,0,0,0Zm4.86,3.53a14.57,14.57,0,0,0,5.81,1.17v-14h-.22l-.06,0Z"/></g></g></g></svg>