<svg xmlns="http://www.w3.org/2000/svg" viewBox="0 0 129.64 59.93"><defs><style>.cls-1{fill:#0080ff;}.cls-2{fill:#0063a3;}.cls-3{fill:#03599c;}.cls-4{fill:#ff2654;}.cls-5{fill:#f7d617;}</style></defs><g id="Layer_2" data-name="Layer 2"><g id="Layer_1-2" data-name="Layer 1"><g id="Layer_2-2" data-name="Layer 2"><g id="Layer_1-2-2" data-name="Layer 1-2"><polygon class="cls-1" points="93.83 35.7 93.83 58.08 103.54 58.08 93.83 35.7"/><polygon class="cls-2" points="104.55 48.18 99.2 48.18 98.44 46.41 104.55 46.41 104.55 48.18"/><path class="cls-2" d="M93.86,35.74h14.7V34H92.8a.89.89,0,0,0-.69.86V59a.89.89,0,0,0,.89.88h15.59V58.07H93.85V35.74Z"/><rect class="cls-1" x="115.54" y="2.22" width="11.73" height="22.8"/><path class="cls-2" d="M115.6,25h11.61V2.35H115.6Zm12.5,1.77H114.72a.87.87,0,0,1-.88-.88h0V1.47a.87.87,0,0,1,.87-.89H128.1a.88.88,0,0,1,.88.89V25.88a.89.89,0,0,1-.88.89"/><path class="cls-3" d="M3.54,40a1.34,1.34,0,0,0,.37-1.86A.76.76,0,0,0,3.8,38,1.33,1.33,0,0,0,2,37.49l-.19.13L1.22,38,3,40.42Zm-.82,1.62L0,37.87l1.34-1a2.16,2.16,0,0,1,3.05.3,2,2,0,0,1,.17.23,2.16,2.16,0,0,1-.26,3,1.88,1.88,0,0,1-.24.18Z"/><polygon class="cls-3" points="7.08 38.46 4.36 34.71 6.71 33.01 7.21 33.7 5.59 34.87 6.21 35.73 7.67 34.66 8.15 35.31 6.68 36.38 7.31 37.24 8.93 36.07 9.43 36.76 7.08 38.46"/><polygon class="cls-3" points="10.69 35.84 7.97 32.09 8.7 31.56 10.91 34.62 12.58 33.4 13.09 34.1 10.69 35.84"/><polyline class="cls-4" points="26.71 0.67 26.73 24.93 39.05 24.87 39.1 0.67"/><path class="cls-2" d="M25.92,26.68a.83.83,0,0,1-.59-.26.93.93,0,0,1-.25-.64V.66h1.7V24.88L39,24.83,39.07.66h1.69V25.72a.87.87,0,0,1-.84.9h0L26,26.68Z"/><polygon class="cls-5" points="70.95 34.13 77.83 48.56 84.6 34.13 70.95 34.13"/><path class="cls-2" d="M86.56,34.13h-2L77.84,48.47,71,34.13H68.6V59.81h1.77V36.92L77.06,50.8a.88.88,0,0,0,.79.48h0a.88.88,0,0,0,.78-.48L85.2,37V59.81H87V34.13Z"/><polygon class="cls-4" points="93.88 26.51 99.93 4.95 106.31 26.51 93.88 26.51"/><polygon class="cls-2" points="108.47 0.71 91.7 0.71 91.7 2.52 98.79 2.52 92.05 26.51 93.89 26.51 99.93 4.99 106.26 26.51 108.11 26.51 101.05 2.52 108.47 2.52 108.47 0.71"/><polygon class="cls-4" points="127.86 55.68 127.86 33.97 115.15 33.97 127.86 55.68"/><path class="cls-2" d="M127.83,34V55.75L115.16,34h-2.07V59.84h1.77V37L128,59.38a.89.89,0,0,0,1.64-.46V34Z"/><polygon class="cls-5" points="3.64 21.72 3.64 1.63 19.37 11.96 3.64 21.72"/><path class="cls-2" d="M21.49,11.24,4.48.09a.55.55,0,0,0-.76.16.53.53,0,0,0-.09.3V1.64L19.37,12,3.64,21.72h0V23.8h0v3H5.41V22.69l16.07-10a.87.87,0,0,0,.41-.73.85.85,0,0,0-.4-.75"/><polygon class="cls-1" points="48.38 2.4 48.38 24.77 58.09 24.77 48.38 2.4"/><polygon class="cls-2" points="59.1 14.87 53.76 14.87 52.99 13.1 59.1 13.1 59.1 14.87"/><path class="cls-2" d="M48.41,2.43h14.7V.66H47.33a.89.89,0,0,0-.69.86V25.65a.87.87,0,0,0,.86.88H63.11V24.76H48.4V2.43Z"/><polygon class="cls-5" points="68.65 17.57 68.65 1.73 84.07 9.87 68.65 17.57"/><path class="cls-2" d="M86.42,9.08,69.46.14a.55.55,0,0,0-.74.22.54.54,0,0,0-.07.27v1.1L84.06,9.86,68.64,17.57v9.05h1.77V18.69l4.48-2.24,9.8,10.32L86,25.54l-9.39-9.93,9.83-4.93a.91.91,0,0,0,0-1.6"/><polygon class="cls-1" points="18.66 35.76 18.66 57.99 3.58 46.56 18.66 35.76"/><path class="cls-2" d="M18.66,57.94l-15-11.4,15-10.75V34.33a.36.36,0,0,0-.37-.37.34.34,0,0,0-.22.07L1.67,45.81a.84.84,0,0,0-.36.7.86.86,0,0,0,.34.71L17.92,59.6a.45.45,0,0,0,.64-.09.38.38,0,0,0,.1-.27Z"/><polygon class="cls-5" points="25.54 59.56 33.02 37.46 40.85 59.48 25.54 59.56"/><path class="cls-2" d="M25.54,59.59,33,37.5l7.86,22h2l-9-25.14a.94.94,0,0,0-.88-.61h0a.92.92,0,0,0-.88.63L23.57,59.59Z"/><path class="cls-2" d="M64.83,42.24l-17-9a.54.54,0,0,0-.73.21.55.55,0,0,0-.07.28v1.11L62.47,43,47.06,50.73v9h1.76V51.84L53.3,49.6l9.8,10.33,1.28-1.24L55,48.76l9.84-4.92a.94.94,0,0,0,.49-.8.87.87,0,0,0-.48-.8"/><polygon class="cls-4" points="47.06 50.75 47.06 34.87 62.48 42.99 47.06 50.75"/></g></g></g></g></svg>