<svg width="848" height="761" viewBox="0 0 848 761" fill="none" xmlns="http://www.w3.org/2000/svg">
<path d="M374.53 455.016L248.077 411.693L202.709 423.276L325.3 507.256L374.53 455.016Z" fill="#73285E"/>
<path d="M483.606 237.942L222.532 302.02L205.605 347.501L366.807 309.14L483.606 237.942Z" fill="#73285E"/>
<path d="M579.934 197.666L91.7018 382.384L579.934 556.217L829.66 396.951L829.66 360.048L579.934 197.666Z" fill="#D11C43"/>
<path d="M500.377 227.806L500.377 481.193L594.131 481.193L726.375 347.019L750.989 364.876L781.878 329.161L579.531 197.337L500.377 227.806Z" fill="#FFE551"/>
<path d="M272 385.233L223.681 335.201L4.41074e-06 300.633L4.41074e-06 441.633L223.681 421.166L272 385.233Z" fill="#D11C43"/>
<path d="M789.904 380.331L790.809 416.926L822.572 396.847L789.904 380.331Z" fill="#FBFBFB"/>
<path d="M500.499 227.807C500.499 227.807 500.499 480.707 500.499 481.193C500.498 481.679 586.409 463.335 586.409 463.335L729.27 295.376L579.652 197.4L500.499 227.807Z" fill="#5FAFFF"/>
<path d="M499 379.633L473.074 336.16L339 309.633L368.63 379.633L339 449.633L473.074 426.054L499 379.633Z" fill="#73285E"/>
<path d="M397.211 383.133L353 436.659L397.21 424.194L500 446.633L500 319.633L397.21 337.673L353 324.475L397.211 383.133Z" fill="#D11C43"/>
<rect width="18.1261" height="18.1261" transform="matrix(-0.707107 0.707107 0.707107 0.707107 743.481 319.508)" fill="black"/>
<path d="M687.763 232.243L561.882 226.83L436.001 221.417L434.811 249.098L686.573 259.923L687.763 232.243Z" fill="#FFBE41"/>
<path d="M612.988 133.947L511.031 129.563L479.5 223.288L636.357 230.032L612.988 133.947Z" fill="#FFBE41"/>
<path d="M633.145 214.047L484.071 207.637L475.545 223.117L640.311 230.202L633.145 214.047Z" fill="black"/>
<rect width="7.87349" height="23.6205" transform="matrix(-0.886706 0.462334 0.462334 0.886706 558.331 218.286)" fill="black"/>
<rect width="7.87349" height="23.6205" transform="matrix(-0.843746 -0.536743 -0.536743 0.843746 562.095 222.387)" fill="black"/>
<path d="M47.8884 408.798L47.8884 336.849L104 316.568L3.8743e-07 300.633L3.8743e-07 441.633L100.614 432.459L47.8884 408.798Z" fill="#73285E"/>
</svg>
