<svg width="360" height="619" viewBox="0 0 360 619" fill="none" xmlns="http://www.w3.org/2000/svg">
<path d="M338.358 14.5869V39.9995L322.05 27.3021L338.358 14.5869Z" fill="#B0B0B0"/>
<path d="M306.141 39.9995V14.6045L322.466 27.302L306.141 39.9995Z" fill="#B0B0B0"/>
<path d="M306.141 14.5869L290.476 27.3727L306.141 39.9995V14.5869Z" fill="#E2E2E2"/>
<path d="M293.362 15.8936H283L288.181 20.9973L293.362 15.8936Z" fill="#B0B0B0"/>
<path d="M283.035 15.9113H293.397L288.216 10.8252L283.035 15.9113Z" fill="#E2E2E2"/>
<path d="M301.552 5.06836H291.189L296.371 10.1721L301.552 5.06836Z" fill="#B0B0B0"/>
<path d="M291.225 5.10372H301.587L296.406 0L291.225 5.10372Z" fill="#E2E2E2"/>
<path d="M360 197.76V619H0V112.012L79.2358 32.7764L247.126 200.666L305.016 142.776L360 197.76Z" fill="#E2E2E2"/>
<path d="M217 103.041V124L230.45 113.528L217 103.041Z" fill="#B0B0B0"/>
<path d="M243.571 124V103.056L230.106 113.528L243.571 124Z" fill="#B0B0B0"/>
<path d="M243.57 103.041L256.504 113.586L243.57 124V103.041Z" fill="#E2E2E2"/>
<path d="M262.972 101.803H254.411L258.699 106.012L262.972 101.803Z" fill="#B0B0B0"/>
<path d="M254.439 101.832H263L258.727 97.623L254.439 101.832Z" fill="#E2E2E2"/>
<path d="M269.726 92.8887H261.165L265.452 97.0834L269.726 92.8887Z" fill="#B0B0B0"/>
<path d="M261.193 92.9036H269.754L265.481 88.6943L261.193 92.9036Z" fill="#E2E2E2"/>
<path d="M49.0003 10.2227V26.2897L38.6895 18.2618L49.0003 10.2227Z" fill="#B0B0B0"/>
<path d="M28.6309 26.2903V10.2344L38.9527 18.2623L28.6309 26.2903Z" fill="#B0B0B0"/>
<path d="M28.6307 10.2227L18.7266 18.3064L28.6307 26.2897V10.2227Z" fill="#E2E2E2"/>
<path d="M20.5515 11.0488H14L17.2757 14.2756L20.5515 11.0488Z" fill="#B0B0B0"/>
<path d="M14.0225 11.0604H20.5739L17.2982 7.84473L14.0225 11.0604Z" fill="#E2E2E2"/>
<path d="M25.7292 4.2041H19.1777L22.4535 7.43091L25.7292 4.2041Z" fill="#B0B0B0"/>
<path d="M19.2002 4.22681H25.7517L22.4759 1L19.2002 4.22681Z" fill="#E2E2E2"/>
</svg>
