<svg xmlns="http://www.w3.org/2000/svg" viewBox="0 0 260.46 260.44"><defs><style>.cls-1{fill:#0080ff;}.cls-2{fill:#0063a3;}.cls-3{fill:#fff;}.cls-4{fill:#ffd90a;}.cls-5{fill:#ff2654;}.cls-6{fill:#e50a54;}.cls-7{fill:#f7d617;}.cls-8{fill:#0a5ca6;}.cls-9{fill:#f7d914;}</style></defs><g id="Layer_2" data-name="Layer 2"><g id="Layer_1-2" data-name="Layer 1"><g id="Layer_2-2" data-name="Layer 2"><g id="Layer_1-2-2" data-name="Layer 1-2"><rect class="cls-1" x="56.13" y="142.95" width="61.38" height="61.38" transform="translate(-97.36 112.25) rotate(-45)"/><rect class="cls-2" x="56.09" y="56.11" width="61.38" height="61.38" transform="translate(-35.96 86.79) rotate(-45)"/><polygon class="cls-3" points="69.97 94.43 69.97 104.82 76.75 99.63 69.97 94.43"/><polygon class="cls-3" points="83.35 104.82 83.35 94.43 76.57 99.63 83.35 104.82"/><polygon class="cls-4" points="83.35 94.43 89.87 99.66 83.35 104.82 83.35 94.43"/><polygon class="cls-3" points="93.13 93.81 88.82 93.81 90.98 95.9 93.13 93.81"/><polygon class="cls-5" points="88.84 93.82 93.15 93.82 90.99 91.74 88.84 93.82"/><polygon class="cls-3" points="96.54 89.39 92.22 89.39 94.38 91.47 96.54 89.39"/><polygon class="cls-4" points="92.24 89.4 96.55 89.4 94.39 87.31 92.24 89.4"/><polygon class="cls-3" points="103.49 72.96 103.49 83.35 96.71 78.16 103.49 72.96"/><polygon class="cls-3" points="90.1 83.35 90.1 72.96 96.88 78.16 90.1 83.35"/><polygon class="cls-5" points="90.1 72.96 83.58 78.19 90.1 83.35 90.1 72.96"/><polygon class="cls-3" points="84.79 73.49 80.48 73.49 82.64 75.58 84.79 73.49"/><polygon class="cls-6" points="80.49 73.5 84.81 73.5 82.65 71.41 80.49 73.5"/><polygon class="cls-5" points="88.19 69.07 83.88 69.07 86.04 71.15 88.19 69.07"/><polygon class="cls-4" points="83.9 69.08 88.21 69.08 86.05 66.99 83.9 69.08"/><rect class="cls-1" x="142.92" y="56.11" width="61.38" height="61.38" transform="translate(-10.53 148.18) rotate(-45)"/><path class="cls-3" d="M174.38,101.8h-.25a.71.71,0,0,1-.71-.69h0V85.65a.71.71,0,0,1,.71-.71h.25a.7.7,0,0,1,.7.7h0V101.1a.7.7,0,0,1-.7.7"/><polygon class="cls-5" points="191.9 85.99 174.32 68.11 174.32 85.83 191.9 85.99"/><polygon class="cls-7" points="156.75 85.99 174.32 68.11 174.32 85.83 156.75 85.99"/><rect class="cls-7" x="186.37" y="99.51" width="61.38" height="61.38" transform="translate(-28.49 191.62) rotate(-45)"/><polygon class="cls-8" points="231.72 121.76 230.51 121.76 230.51 112.4 221.3 112.4 221.3 117.3 220.1 117.3 220.1 111.19 231.72 111.19 231.72 121.76"/><polygon class="cls-3" points="228.34 123.93 234.08 123.93 231.21 126.71 228.34 123.93"/><polygon class="cls-5" points="234.06 123.94 228.32 123.94 231.19 121.17 234.06 123.94"/><polygon class="cls-3" points="217.96 119.36 223.7 119.36 220.83 122.14 217.96 119.36"/><polygon class="cls-1" points="223.69 119.37 217.95 119.37 220.82 116.6 223.69 119.37"/><polygon class="cls-8" points="217.12 142.47 215.91 142.47 215.91 128.56 201.96 128.56 201.96 135.97 200.75 135.97 200.75 127.35 217.12 127.35 217.12 142.47"/><polygon class="cls-3" points="212.48 145.63 220.83 145.63 216.66 149.67 212.48 145.63"/><polygon class="cls-5" points="220.81 145.65 212.45 145.65 216.63 141.6 220.81 145.65"/><polygon class="cls-3" points="197.37 138.97 205.73 138.97 201.55 143.01 197.37 138.97"/><polygon class="cls-1" points="205.7 138.99 197.34 138.99 201.52 134.95 205.7 138.99"/><rect class="cls-5" x="142.95" y="142.91" width="61.38" height="61.38" transform="translate(-71.9 173.63) rotate(-45)"/><path class="cls-8" d="M171.52,173.9V161.41l-9.13,12.49s9.28.16,9.13,0"/><polygon class="cls-3" points="154.8 175.38 192.97 175.38 172.83 189.19 154.8 175.38"/><path class="cls-4" d="M173.36,173.87V156.08l13,17.79s-13.22.23-13,0"/><rect class="cls-2" x="99.53" y="186.35" width="61.38" height="61.38" transform="translate(-115.33 155.65) rotate(-45)"/><polygon class="cls-4" points="126.47 220.95 126.39 220.95 119.61 214.39 112.81 220.98 112.89 220.98 119.66 227.54 126.47 220.95"/><polygon class="cls-5" points="147.94 220.95 147.86 220.95 141.09 214.39 134.28 220.98 134.36 220.98 141.13 227.54 147.94 220.95"/><path class="cls-3" d="M123.37,211.83l6.88,7.23,7.17-7.23Zm6.87,9h0a.7.7,0,0,1-.51-.22l-8.57-9a.72.72,0,0,1,0-1,.69.69,0,0,1,.51-.2h17.48a.72.72,0,0,1,.52,1.23l-8.92,9a.78.78,0,0,1-.52.21"/><path class="cls-3" d="M140.4,220.32a.74.74,0,0,1-.72-.65l-1.82-15.39h-3.63a.73.73,0,1,1,0-1.45h4.28a.72.72,0,0,1,.72.64l1.89,16a.73.73,0,0,1-.64.8h-.08"/><path class="cls-3" d="M119.36,221a.74.74,0,0,1-.57-.27.71.71,0,0,1-.13-.63l2.23-8.88-3.12-4.07a.73.73,0,0,1,.57-1.17h4.36a.73.73,0,0,1,0,1.45h-2.89l2.45,3.19a.71.71,0,0,1,.12.62l-2.09,8.29,9.94-.2h0a.73.73,0,0,1,.17,1.45h-.17l-10.88.22h0"/><path class="cls-3" d="M86.69,188.79h-.26a.71.71,0,0,1-.7-.71V172.63a.7.7,0,0,1,.7-.7h.26a.7.7,0,0,1,.7.7v15.45a.71.71,0,0,1-.7.71"/><polygon class="cls-5" points="88.17 168.5 87.63 172.12 69.62 167.55 88.17 168.5"/><polygon class="cls-3" points="88.23 171.08 87.21 167.56 69.96 174.44 88.23 171.08"/><polygon class="cls-8" points="84.72 172.75 85.29 169.13 103.26 173.83 84.72 172.75"/><polygon class="cls-8" points="86.63 172.3 88.23 169 70.81 162.55 86.63 172.3"/><polygon class="cls-3" points="86.07 172.61 88.93 170.31 75.92 157.05 86.07 172.61"/><polygon class="cls-4" points="87.83 171.66 87.6 168 69.27 171.04 87.83 171.66"/><polygon class="cls-4" points="85.66 171.45 89.12 170.26 81.36 153.38 85.66 171.45"/><polygon class="cls-5" points="89.53 171.97 88.33 168.5 71.45 176.26 89.53 171.97"/><polygon class="cls-8" points="85.63 170.17 88.69 172.18 97.27 155.7 85.63 170.17"/><polygon class="cls-3" points="84.89 169.11 86.41 172.44 102.47 163.12 84.89 169.11"/><polygon class="cls-4" points="86.11 171.45 89.77 171.67 89.05 153.11 86.11 171.45"/><polygon class="cls-4" points="86.59 169.31 87.34 172.9 105.06 167.32 86.59 169.31"/><polygon class="cls-5" points="85.59 173.09 89.18 172.34 83.59 154.62 85.59 173.09"/><polygon class="cls-3" points="88.41 171.42 84.74 171.42 86.57 152.94 88.41 171.42"/><polygon class="cls-5" points="88.92 171.06 85.61 172.62 79.39 155.11 88.92 171.06"/><polygon class="cls-4" points="87.3 172.23 84.12 170.41 94.88 155.27 87.3 172.23"/><polygon class="cls-4" points="88.22 170.91 85.62 173.5 73.85 159.13 88.22 170.91"/><polygon class="cls-5" points="86.98 174.61 84.39 172.02 98.76 160.24 86.98 174.61"/><rect class="cls-5" x="12.71" y="99.52" width="61.38" height="61.38" transform="translate(-79.36 68.83) rotate(-45)"/><path class="cls-3" d="M42.82,151.9a.61.61,0,0,1-.61-.59h0V112.19a.61.61,0,1,1,1.21-.16.43.43,0,0,1,0,.16V151.3a.6.6,0,0,1-.6.6"/><polygon class="cls-3" points="45.34 112.19 40.29 112.19 42.82 106.89 45.34 112.19"/><path class="cls-3" d="M33.38,123.62a.47.47,0,0,1-.47-.4.48.48,0,0,1,.4-.53l17.2-2.41a.46.46,0,0,1,.53.4.45.45,0,0,1-.38.52h0l-17.2,2.41h-.06"/><polygon class="cls-9" points="50.06 118.48 50.06 123.21 55.57 120.84 50.06 118.48"/><polygon class="cls-3" points="33.74 125.69 33.74 120.97 28.22 123.33 33.74 125.69"/><polygon class="cls-8" points="39.52 113.77 39.52 118.49 45.04 116.13 39.52 113.77"/><path class="cls-3" d="M34.31,127a.48.48,0,0,1-.47-.44.49.49,0,0,1,.45-.5l17.3-.91a.46.46,0,0,1,.49.43h0a.47.47,0,0,1-.44.49l-17.3.92h0"/><path class="cls-3" d="M48.17,120h0l-12.38-.51a.47.47,0,1,1,0-.94h0l12.38.52a.47.47,0,0,1,0,.93"/><polygon class="cls-1" points="47.72 121.79 47.72 117.06 53.23 119.42 47.72 121.79"/><polygon class="cls-9" points="35.87 116.99 35.87 121.72 30.36 119.35 35.87 116.99"/><polygon class="cls-3" points="51.16 127.99 51.16 123.26 56.67 125.62 51.16 127.99"/><path class="cls-3" d="M37.06,130.56a.47.47,0,0,1,0-.93l12.39-.52a.47.47,0,1,1,0,.94L37,130.56h0"/><polygon class="cls-9" points="49.02 127.19 49.02 131.91 54.53 129.55 49.02 127.19"/><polygon class="cls-8" points="37.52 132.34 37.52 127.61 32.01 129.97 37.52 132.34"/><polygon class="cls-9" points="35.01 124.72 35.01 129.45 29.5 127.09 35.01 124.72"/><path class="cls-3" d="M47,133.67h0l-8.34-.35a.47.47,0,1,1,0-.94l8.34.35a.47.47,0,0,1,0,.94"/><polygon class="cls-9" points="38.95 131.24 38.95 134.42 35.24 132.83 38.95 131.24"/><polygon class="cls-8" points="46.7 134.71 46.7 131.53 50.41 133.12 46.7 134.71"/><polygon class="cls-9" points="40.56 126.4 40.56 121.68 35.05 124.04 40.56 126.4"/><polygon class="cls-1" points="44.22 122.71 44.22 127.44 49.73 125.08 44.22 122.71"/><polygon class="cls-9" points="40.95 131.23 40.95 128 37.19 129.62 40.95 131.23"/><polygon class="cls-1" points="43.31 127.99 43.31 131.56 47.48 129.77 43.31 127.99"/><path class="cls-3" d="M45.46,136.6h0l-6.23-.07a.48.48,0,0,1-.46-.48.47.47,0,0,1,.47-.46h0l6.23.07a.47.47,0,0,1,0,.94"/><polygon class="cls-1" points="41.02 134.35 41.02 137.53 37.31 135.94 41.02 134.35"/><polygon class="cls-9" points="45.15 137.64 45.15 134.46 48.86 136.05 45.15 137.64"/><polygon class="cls-3" points="40.23 151.93 45.63 151.93 42.88 148.9 40.23 151.93"/></g></g><g id="Layer_2-3" data-name="Layer 2"><g id="Layer_1-2-3" data-name="Layer 1-2"><rect class="cls-7" x="99.49" y="12.71" width="61.38" height="61.38" transform="translate(7.44 104.77) rotate(-45)"/><polygon class="cls-2" points="141.13 34.76 133.57 27.44 126.06 34.72 125.97 34.72 133.53 42.03 141.04 34.76 141.13 34.76"/><path class="cls-3" d="M133.43,25.16a.87.87,0,0,1-.87-.86V18.53a.87.87,0,0,1,1.73,0V24.3a.88.88,0,0,1-.86.86"/><path class="cls-3" d="M133.81,51.7a.88.88,0,0,1-.86-.86V45.07a.87.87,0,0,1,1.73,0v5.77a.87.87,0,0,1-.87.86"/><path class="cls-3" d="M151.34,35.71h-5.77a.87.87,0,0,1-.77-1,.85.85,0,0,1,.77-.77h5.77a.87.87,0,0,1,0,1.73"/><path class="cls-3" d="M123.05,35.86h-5.77a.86.86,0,0,1,0-1.72h5.77a.86.86,0,0,1,0,1.72"/><path class="cls-3" d="M140.32,28.18a.86.86,0,0,1-.61-.25.88.88,0,0,1,0-1.22l4.08-4.11a.88.88,0,0,1,1.21,0,.86.86,0,0,1,0,1.22h0l-4.08,4.08a.86.86,0,0,1-.61.25"/><path class="cls-3" d="M121.83,47.23a.87.87,0,0,1-.61-.26.85.85,0,0,1,0-1.2h0l4.08-4.08a.86.86,0,0,1,1.22,1.22h0L122.44,47a.87.87,0,0,1-.61.26"/><path class="cls-3" d="M126.34,28.6a.86.86,0,0,1-.61-.25l-4.08-4.08a.86.86,0,0,1,0-1.22h0a.88.88,0,0,1,1.22,0L127,27.11a.86.86,0,0,1-.61,1.47"/><path class="cls-3" d="M145.38,47.08a.86.86,0,0,1-.61-.25l-4.08-4.08a.88.88,0,0,1,0-1.22.86.86,0,0,1,1.22,0h0L146,45.6a.86.86,0,0,1,0,1.22h0a.86.86,0,0,1-.61.25"/><polygon class="cls-3" points="121.8 57.71 111.41 57.71 116.61 52.8 121.8 57.71"/><polygon class="cls-3" points="131.52 57.71 121.12 57.71 126.32 52.8 131.52 57.71"/></g></g></g></g></svg>